<?xml version="1.0" encoding="utf-8"?>
<svg version="1.1" xmlns:xlink="http://www.w3.org/1999/xlink" width="30px" height="37px" xmlns="http://www.w3.org/2000/svg">
  <defs>
    <mask fill="white" id="clip41">
      <path d="M 20 9.44999999999999  C 20 12.4797529217794  18.7911897590742 14.9655412351421  17.0970055951132 17.3956844546645  C 16.7816467529946 17.8480361931551  16.4494702640187 18.298459893296  16.1051420073853 18.7501050235471  C 14.1780743479559 21.2777823409866  11.8703897989718 23.843717214235  10 27  C 6 20.25  0 16.2  0 9.44999999999999  C 0 5.94  2 0  10 0  C 18 0  20 5.94  20 9.44999999999999  Z " fill-rule="evenodd" />
    </mask>
    <filter x="280px" y="462px" width="30px" height="37px" filterUnits="userSpaceOnUse" id="filter42">
      <feOffset dx="1" dy="1" in="SourceAlpha" result="shadowOffsetInner" />
      <feGaussianBlur stdDeviation="2.5" in="shadowOffsetInner" result="shadowGaussian" />
      <feComposite in2="shadowGaussian" operator="atop" in="SourceAlpha" result="shadowComposite" />
      <feColorMatrix type="matrix" values="0 0 0 0 0  0 0 0 0 0  0 0 0 0 0  0 0 0 0.698039215686274 0  " in="shadowComposite" />
    </filter>
    <g id="widget43">
      <path d="M 20 9.44999999999999  C 20 12.4797529217794  18.7911897590742 14.9655412351421  17.0970055951132 17.3956844546645  C 16.7816467529946 17.8480361931551  16.4494702640187 18.298459893296  16.1051420073853 18.7501050235471  C 14.1780743479559 21.2777823409866  11.8703897989718 23.843717214235  10 27  C 6 20.25  0 16.2  0 9.44999999999999  C 0 5.94  2 0  10 0  C 18 0  20 5.94  20 9.44999999999999  Z " fill-rule="nonzero" fill="#ec808d" stroke="none" transform="matrix(1 0 0 1 284 466 )" />
      <path d="M 20 9.44999999999999  C 20 12.4797529217794  18.7911897590742 14.9655412351421  17.0970055951132 17.3956844546645  C 16.7816467529946 17.8480361931551  16.4494702640187 18.298459893296  16.1051420073853 18.7501050235471  C 14.1780743479559 21.2777823409866  11.8703897989718 23.843717214235  10 27  C 6 20.25  0 16.2  0 9.44999999999999  C 0 5.94  2 0  10 0  C 18 0  20 5.94  20 9.44999999999999  Z " stroke-width="2" stroke="#ffffff" fill="none" transform="matrix(1 0 0 1 284 466 )" mask="url(#clip41)" />
    </g>
  </defs>
  <g transform="matrix(1 0 0 1 -280 -462 )">
    <use xlink:href="#widget43" filter="url(#filter42)" />
    <use xlink:href="#widget43" />
  </g>
</svg>