<?xml version="1.0" encoding="utf-8"?>
<svg version="1.1" xmlns:xlink="http://www.w3.org/1999/xlink" width="30px" height="37px" xmlns="http://www.w3.org/2000/svg">
  <defs>
    <mask fill="white" id="clip102">
      <path d="M 20 9.44999999999999  C 20 12.2945128282332  18.9344851713602 14.6595439835786  17.4021460027203 16.9492095458679  C 15.2982599149097 20.0928970667678  12.3143627684544 23.0945128282333  10 27  C 8.30887218463545 24.1462218115723  6.26025520828347 21.7750539904777  4.45870893478121 19.4784186286261  C 4.45832447637417 19.4779285158903  4.45794002921912 19.4774384065488  4.45755559332196 19.4769483005977  C 2.76530753793458 17.3195513229565  1.29119984648844 15.2278483556178  0.536386751991472 12.8635602913013  C 0.1943404369826 11.7921745059793  0 10.6648138513108  0 9.44999999999999  C 0 5.94  2 0  10 0  C 10.7729860374734 0  11.4899557548723 0.055456156873845  12.1545174716372 0.15881806219187  C 12.1566877467241 0.159155613637267  12.1588574628821 0.159493675995179  12.161026620237 0.159832249002648  C 18.3689609365092 1.12879791074937  20 6.28025518644534  20 9.44999999999999  Z " fill-rule="evenodd" />
    </mask>
    <filter x="280px" y="270px" width="30px" height="37px" filterUnits="userSpaceOnUse" id="filter103">
      <feOffset dx="1" dy="1" in="SourceAlpha" result="shadowOffsetInner" />
      <feGaussianBlur stdDeviation="2.5" in="shadowOffsetInner" result="shadowGaussian" />
      <feComposite in2="shadowGaussian" operator="atop" in="SourceAlpha" result="shadowComposite" />
      <feColorMatrix type="matrix" values="0 0 0 0 0  0 0 0 0 0  0 0 0 0 0  0 0 0 0.698039215686274 0  " in="shadowComposite" />
    </filter>
    <g id="widget104">
      <path d="M 20 9.44999999999999  C 20 12.2945128282332  18.9344851713602 14.6595439835786  17.4021460027203 16.9492095458679  C 15.2982599149097 20.0928970667678  12.3143627684544 23.0945128282333  10 27  C 8.30887218463545 24.1462218115723  6.26025520828347 21.7750539904777  4.45870893478121 19.4784186286261  C 4.45832447637417 19.4779285158903  4.45794002921912 19.4774384065488  4.45755559332196 19.4769483005977  C 2.76530753793458 17.3195513229565  1.29119984648844 15.2278483556178  0.536386751991472 12.8635602913013  C 0.1943404369826 11.7921745059793  0 10.6648138513108  0 9.44999999999999  C 0 5.94  2 0  10 0  C 10.7729860374734 0  11.4899557548723 0.055456156873845  12.1545174716372 0.15881806219187  C 12.1566877467241 0.159155613637267  12.1588574628821 0.159493675995179  12.161026620237 0.159832249002648  C 18.3689609365092 1.12879791074937  20 6.28025518644534  20 9.44999999999999  Z " fill-rule="nonzero" fill="#ec808d" stroke="none" transform="matrix(1 0 0 1 284 274 )" />
      <path d="M 20 9.44999999999999  C 20 12.2945128282332  18.9344851713602 14.6595439835786  17.4021460027203 16.9492095458679  C 15.2982599149097 20.0928970667678  12.3143627684544 23.0945128282333  10 27  C 8.30887218463545 24.1462218115723  6.26025520828347 21.7750539904777  4.45870893478121 19.4784186286261  C 4.45832447637417 19.4779285158903  4.45794002921912 19.4774384065488  4.45755559332196 19.4769483005977  C 2.76530753793458 17.3195513229565  1.29119984648844 15.2278483556178  0.536386751991472 12.8635602913013  C 0.1943404369826 11.7921745059793  0 10.6648138513108  0 9.44999999999999  C 0 5.94  2 0  10 0  C 10.7729860374734 0  11.4899557548723 0.055456156873845  12.1545174716372 0.15881806219187  C 12.1566877467241 0.159155613637267  12.1588574628821 0.159493675995179  12.161026620237 0.159832249002648  C 18.3689609365092 1.12879791074937  20 6.28025518644534  20 9.44999999999999  Z " stroke-width="2" stroke="#ffffff" fill="none" transform="matrix(1 0 0 1 284 274 )" mask="url(#clip102)" />
    </g>
  </defs>
  <g transform="matrix(1 0 0 1 -280 -270 )">
    <use xlink:href="#widget104" filter="url(#filter103)" />
    <use xlink:href="#widget104" />
  </g>
</svg>