<?xml version="1.0" encoding="utf-8"?>
<svg version="1.1" xmlns:xlink="http://www.w3.org/1999/xlink" width="438px" height="192px" xmlns="http://www.w3.org/2000/svg">
  <g transform="matrix(1 0 0 1 -1555 -545 )">
    <path d="M 1556 551  A 5 5 0 0 1 1561 546 L 1987 546  A 5 5 0 0 1 1992 551 L 1992 731  A 5 5 0 0 1 1987 736 L 1561 736  A 5 5 0 0 1 1556 731 L 1556 551  Z " fill-rule="nonzero" fill="#000000" stroke="none" fill-opacity="0.0196078431372549" />
    <path d="M 1555.5 551  A 5.5 5.5 0 0 1 1561 545.5 L 1987 545.5  A 5.5 5.5 0 0 1 1992.5 551 L 1992.5 731  A 5.5 5.5 0 0 1 1987 736.5 L 1561 736.5  A 5.5 5.5 0 0 1 1555.5 731 L 1555.5 551  Z " stroke-width="1" stroke-dasharray="9,4" stroke="#108ee9" fill="none" stroke-dashoffset="0.5" />
  </g>
</svg>