<?xml version="1.0" encoding="utf-8"?>
<svg version="1.1" xmlns:xlink="http://www.w3.org/1999/xlink" width="30px" height="37px" xmlns="http://www.w3.org/2000/svg">
  <defs>
    <mask fill="white" id="clip228">
      <path d="M 20 9.44999999999999  C 20 16.2  14 20.25  10 27  C 6 20.25  0 16.2  0 9.44999999999999  C 0 5.94  2 0  10 0  C 10.3338412606602 0  10.6572340850091 0.010343951948073  10.9704691496429 0.0304236150674058  C 18.1634378182264 0.491522655374354  20 6.08647285311466  20 9.44999999999999  Z " fill-rule="evenodd" />
    </mask>
    <filter x="1502px" y="79px" width="30px" height="37px" filterUnits="userSpaceOnUse" id="filter229">
      <feOffset dx="1" dy="1" in="SourceAlpha" result="shadowOffsetInner" />
      <feGaussianBlur stdDeviation="2.5" in="shadowOffsetInner" result="shadowGaussian" />
      <feComposite in2="shadowGaussian" operator="atop" in="SourceAlpha" result="shadowComposite" />
      <feColorMatrix type="matrix" values="0 0 0 0 0  0 0 0 0 0  0 0 0 0 0  0 0 0 0.698039215686274 0  " in="shadowComposite" />
    </filter>
    <g id="widget230">
      <path d="M 20 9.44999999999999  C 20 16.2  14 20.25  10 27  C 6 20.25  0 16.2  0 9.44999999999999  C 0 5.94  2 0  10 0  C 10.3338412606602 0  10.6572340850091 0.010343951948073  10.9704691496429 0.0304236150674058  C 18.1634378182264 0.491522655374354  20 6.08647285311466  20 9.44999999999999  Z " fill-rule="nonzero" fill="#ec808d" stroke="none" transform="matrix(1 0 0 1 1506 83 )" />
      <path d="M 20 9.44999999999999  C 20 16.2  14 20.25  10 27  C 6 20.25  0 16.2  0 9.44999999999999  C 0 5.94  2 0  10 0  C 10.3338412606602 0  10.6572340850091 0.010343951948073  10.9704691496429 0.0304236150674058  C 18.1634378182264 0.491522655374354  20 6.08647285311466  20 9.44999999999999  Z " stroke-width="2" stroke="#ffffff" fill="none" transform="matrix(1 0 0 1 1506 83 )" mask="url(#clip228)" />
    </g>
  </defs>
  <g transform="matrix(1 0 0 1 -1502 -79 )">
    <use xlink:href="#widget230" filter="url(#filter229)" />
    <use xlink:href="#widget230" />
  </g>
</svg>