<?xml version="1.0" encoding="utf-8"?>
<svg version="1.1" xmlns:xlink="http://www.w3.org/1999/xlink" width="30px" height="37px" xmlns="http://www.w3.org/2000/svg">
  <defs>
    <filter x="1233px" y="187px" width="30px" height="37px" filterUnits="userSpaceOnUse" id="filter185">
      <feOffset dx="1" dy="1" in="SourceAlpha" result="shadowOffsetInner" />
      <feGaussianBlur stdDeviation="2.5" in="shadowOffsetInner" result="shadowGaussian" />
      <feComposite in2="shadowGaussian" operator="atop" in="SourceAlpha" result="shadowComposite" />
      <feColorMatrix type="matrix" values="0 0 0 0 0  0 0 0 0 0  0 0 0 0 0  0 0 0 0.698039215686274 0  " in="shadowComposite" />
    </filter>
    <g id="widget186">
      <path d="M 1247 217.028794418255  C 1243.2 210.652335026619  1237.5 206.826459391637  1237.5 200.45  C 1237.5 197.125714285714  1239.4 191.5  1247 191.5  C 1254.6 191.5  1256.5 197.125714285714  1256.5 200.45  C 1256.5 206.826459391637  1250.8 210.652335026619  1247 217.028794418255  Z " fill-rule="nonzero" fill="#ec808d" stroke="none" />
      <path d="M 1247 218  C 1243 211.25  1237 207.2  1237 200.45  C 1237 196.94  1239 191  1247 191  C 1255 191  1257 196.94  1257 200.45  C 1257 207.2  1251 211.25  1247 218  Z M 1247 216.05758883651  C 1250.6 210.054670053237  1256 206.452918783273  1256 200.45  C 1256 197.311428571429  1254.2 192  1247 192  C 1239.8 192  1238 197.311428571429  1238 200.45  C 1238 206.452918783273  1243.4 210.054670053237  1247 216.05758883651  Z " fill-rule="nonzero" fill="#ffffff" stroke="none" />
    </g>
  </defs>
  <g transform="matrix(1 0 0 1 -1233 -187 )">
    <use xlink:href="#widget186" filter="url(#filter185)" />
    <use xlink:href="#widget186" />
  </g>
</svg>