<?xml version="1.0" encoding="utf-8"?>
<svg version="1.1" xmlns:xlink="http://www.w3.org/1999/xlink" width="30px" height="37px" xmlns="http://www.w3.org/2000/svg">
  <defs>
    <mask fill="white" id="clip134">
      <path d="M 20 9.44999999999999  C 20 11.7837476938814  19.282781458608 13.7947470441363  18.1789729421412 15.7061723330291  C 17.8497786166049 16.2762262412959  17.4861993893207 16.8374236231723  17.0970055951132 17.3956844546645  C 17.0736273934908 17.4292182223418  17.0501567694344 17.4627413943633  17.0265956238104 17.4962552538143  C 16.7323301152276 17.9148245820339  16.4239444999282 18.3319412786466  16.1051420073854 18.7501050235471  C 14.1780743479558 21.2777823409866  11.8703897989717 23.843717214235  10 27  C 6 20.25  0 16.2  0 9.44999999999999  C 0 5.94  2 0  10 0  C 18 0  20 5.94  20 9.44999999999999  Z " fill-rule="evenodd" />
    </mask>
    <filter x="1503px" y="298px" width="30px" height="37px" filterUnits="userSpaceOnUse" id="filter135">
      <feOffset dx="1" dy="1" in="SourceAlpha" result="shadowOffsetInner" />
      <feGaussianBlur stdDeviation="2.5" in="shadowOffsetInner" result="shadowGaussian" />
      <feComposite in2="shadowGaussian" operator="atop" in="SourceAlpha" result="shadowComposite" />
      <feColorMatrix type="matrix" values="0 0 0 0 0  0 0 0 0 0  0 0 0 0 0  0 0 0 0.698039215686274 0  " in="shadowComposite" />
    </filter>
    <g id="widget136">
      <path d="M 20 9.44999999999999  C 20 11.7837476938814  19.282781458608 13.7947470441363  18.1789729421412 15.7061723330291  C 17.8497786166049 16.2762262412959  17.4861993893207 16.8374236231723  17.0970055951132 17.3956844546645  C 17.0736273934908 17.4292182223418  17.0501567694344 17.4627413943633  17.0265956238104 17.4962552538143  C 16.7323301152276 17.9148245820339  16.4239444999282 18.3319412786466  16.1051420073854 18.7501050235471  C 14.1780743479558 21.2777823409866  11.8703897989717 23.843717214235  10 27  C 6 20.25  0 16.2  0 9.44999999999999  C 0 5.94  2 0  10 0  C 18 0  20 5.94  20 9.44999999999999  Z " fill-rule="nonzero" fill="#ec808d" stroke="none" transform="matrix(1 0 0 1 1507 302 )" />
      <path d="M 20 9.44999999999999  C 20 11.7837476938814  19.282781458608 13.7947470441363  18.1789729421412 15.7061723330291  C 17.8497786166049 16.2762262412959  17.4861993893207 16.8374236231723  17.0970055951132 17.3956844546645  C 17.0736273934908 17.4292182223418  17.0501567694344 17.4627413943633  17.0265956238104 17.4962552538143  C 16.7323301152276 17.9148245820339  16.4239444999282 18.3319412786466  16.1051420073854 18.7501050235471  C 14.1780743479558 21.2777823409866  11.8703897989717 23.843717214235  10 27  C 6 20.25  0 16.2  0 9.44999999999999  C 0 5.94  2 0  10 0  C 18 0  20 5.94  20 9.44999999999999  Z " stroke-width="2" stroke="#ffffff" fill="none" transform="matrix(1 0 0 1 1507 302 )" mask="url(#clip134)" />
    </g>
  </defs>
  <g transform="matrix(1 0 0 1 -1503 -298 )">
    <use xlink:href="#widget136" filter="url(#filter135)" />
    <use xlink:href="#widget136" />
  </g>
</svg>