<?xml version="1.0" encoding="utf-8"?>
<svg version="1.1" xmlns:xlink="http://www.w3.org/1999/xlink" width="24px" height="24px" xmlns="http://www.w3.org/2000/svg">
  <g transform="matrix(1 0 0 1 -1319 -22 )">
    <path d="M 18.3979999921876 18.558  C 14.3719999921875 20.154  10.1259999843751 20.268  5.59999999218758 18.5539999921875  C 5.56399999218752 14.847999984375  7.37400000000002 12.5479999921875  9.64399999218745 11.6440000078125  L 11.9760000000001 15.534  L 14.4319999921875 11.7340000078125  C 16.6219999921875 12.6940000078125  18.3639999843749 14.9680000078125  18.3979999921876 18.558  Z M 8.42431601488374 7.82200000781251  C 8.42431601488374 5.86956405402408  9.97264272808479 4.26889208344303  11.9239999921874 4.2040000078125  C 11.9640914793292 4.20266677178053  12.0042023577789 4.202000015625  12.0443160070713 4.202000015625  C 14.0435867971439 4.202000015625  15.6643159992586 5.82272921773975  15.6643159992586 7.82200000781251  C 15.6643159992586 9.82127079788525  14.0435867971439 11.442  12.0443160070713 11.442  C 12.0042023577789 11.442  11.9640914793292 11.4413332438445  11.9239999921874 11.4400000078125  C 9.97264272808479 11.375107932182  8.42431601488374 9.77443596160091  8.42431601488374 7.82200000781251  Z M 12 0  C 5.37258300203052 0  0 5.37258300203048  0 12  C 0 18.6274169979695  5.37258300203052 24  12 24  C 18.6274169979695 24  24 18.6274169979695  24 12  C 24 5.37258300203048  18.6274169979695 0  12 0  Z " fill-rule="nonzero" fill="#6b7691" stroke="none" transform="matrix(1 0 0 1 1319 22 )" />
  </g>
</svg>