<?xml version="1.0" encoding="utf-8"?>
<svg version="1.1" xmlns:xlink="http://www.w3.org/1999/xlink" width="30px" height="37px" xmlns="http://www.w3.org/2000/svg">
  <defs>
    <mask fill="white" id="clip216">
      <path d="M 20 9.45  C 20 12.2945128282333  18.9344851713602 14.6595439835786  17.4021460027203 16.9492095458678  C 15.2982599149097 20.0928970667678  12.3143627684544 23.0945128282333  10 27  C 8.30887218463545 24.1462218115723  6.26025520828347 21.7750539904777  4.45870893478121 19.4784186286261  C 4.45832447637417 19.4779285158903  4.45794002921912 19.4774384065488  4.45755559332196 19.4769483005977  C 1.99845914109812 16.3419189904051  0 13.3456128019496  0 9.45  C 0 5.94  2 0  10 0  C 10.7729860374734 0  11.4899557548723 0.0554561568738308  12.1545174716372 0.158818062191855  C 12.1566877467241 0.159155613637239  12.1588574628821 0.159493675995165  12.161026620237 0.159832249002662  C 18.3689609365092 1.12879791074937  20 6.28025518644534  20 9.45  Z " fill-rule="evenodd" />
    </mask>
    <filter x="484px" y="207px" width="30px" height="37px" filterUnits="userSpaceOnUse" id="filter217">
      <feOffset dx="1" dy="1" in="SourceAlpha" result="shadowOffsetInner" />
      <feGaussianBlur stdDeviation="2.5" in="shadowOffsetInner" result="shadowGaussian" />
      <feComposite in2="shadowGaussian" operator="atop" in="SourceAlpha" result="shadowComposite" />
      <feColorMatrix type="matrix" values="0 0 0 0 0  0 0 0 0 0  0 0 0 0 0  0 0 0 0.698039215686274 0  " in="shadowComposite" />
    </filter>
    <g id="widget218">
      <path d="M 20 9.45  C 20 12.2945128282333  18.9344851713602 14.6595439835786  17.4021460027203 16.9492095458678  C 15.2982599149097 20.0928970667678  12.3143627684544 23.0945128282333  10 27  C 8.30887218463545 24.1462218115723  6.26025520828347 21.7750539904777  4.45870893478121 19.4784186286261  C 4.45832447637417 19.4779285158903  4.45794002921912 19.4774384065488  4.45755559332196 19.4769483005977  C 1.99845914109812 16.3419189904051  0 13.3456128019496  0 9.45  C 0 5.94  2 0  10 0  C 10.7729860374734 0  11.4899557548723 0.0554561568738308  12.1545174716372 0.158818062191855  C 12.1566877467241 0.159155613637239  12.1588574628821 0.159493675995165  12.161026620237 0.159832249002662  C 18.3689609365092 1.12879791074937  20 6.28025518644534  20 9.45  Z " fill-rule="nonzero" fill="#ec808d" stroke="none" transform="matrix(1 0 0 1 488 211 )" />
      <path d="M 20 9.45  C 20 12.2945128282333  18.9344851713602 14.6595439835786  17.4021460027203 16.9492095458678  C 15.2982599149097 20.0928970667678  12.3143627684544 23.0945128282333  10 27  C 8.30887218463545 24.1462218115723  6.26025520828347 21.7750539904777  4.45870893478121 19.4784186286261  C 4.45832447637417 19.4779285158903  4.45794002921912 19.4774384065488  4.45755559332196 19.4769483005977  C 1.99845914109812 16.3419189904051  0 13.3456128019496  0 9.45  C 0 5.94  2 0  10 0  C 10.7729860374734 0  11.4899557548723 0.0554561568738308  12.1545174716372 0.158818062191855  C 12.1566877467241 0.159155613637239  12.1588574628821 0.159493675995165  12.161026620237 0.159832249002662  C 18.3689609365092 1.12879791074937  20 6.28025518644534  20 9.45  Z " stroke-width="2" stroke="#ffffff" fill="none" transform="matrix(1 0 0 1 488 211 )" mask="url(#clip216)" />
    </g>
  </defs>
  <g transform="matrix(1 0 0 1 -484 -207 )">
    <use xlink:href="#widget218" filter="url(#filter217)" />
    <use xlink:href="#widget218" />
  </g>
</svg>